<svg width="1440" height="1024" viewBox="0 0 1440 1024" fill="none" xmlns="http://www.w3.org/2000/svg">
<g clip-path="url(#clip0_4_11)">
<g filter="url(#filter0_d_4_11)">
<path d="M762.5 330C589.31 168.665 376.896 137.605 417.208 -6.16468L531.248 -65L1547 -40.1081V459.539C1543.08 557.102 1413.71 845.931 1438.88 947.422C1524.59 988.6 1551.39 1005.43 1467.44 981.363C1452.28 977.019 1443.25 965.045 1438.88 947.422C1339.78 899.808 1161.92 819.64 985.5 732.5C775.5 642.5 930.5 486.5 762.5 330Z" fill="url(#paint0_linear_4_11)" shape-rendering="crispEdges"/>
<path d="M417.208 -6.16468C376.896 137.605 589.31 168.665 762.5 330C930.5 486.5 775.5 642.5 985.5 732.5C1314.5 895 1648.47 1033.26 1467.44 981.363C1365 952 1542.4 574.042 1547 459.539V-40.1081L531.248 -65L417.208 -6.16468Z" stroke="url(#paint1_linear_4_11)" shape-rendering="crispEdges"/>
</g>
</g>
<defs>
<filter id="filter0_d_4_11" x="358.726" y="-96.503" width="1205.77" height="1128.45" filterUnits="userSpaceOnUse" color-interpolation-filters="sRGB">
<feFlood flood-opacity="0" result="BackgroundImageFix"/>
<feColorMatrix in="SourceAlpha" type="matrix" values="0 0 0 0 0 0 0 0 0 0 0 0 0 0 0 0 0 0 127 0" result="hardAlpha"/>
<feOffset dx="-18" dy="4"/>
<feGaussianBlur stdDeviation="17.5"/>
<feComposite in2="hardAlpha" operator="out"/>
<feColorMatrix type="matrix" values="0 0 0 0 0 0 0 0 0 0 0 0 0 0 0 0 0 0 0.25 0"/>
<feBlend mode="normal" in2="BackgroundImageFix" result="effect1_dropShadow_4_11"/>
<feBlend mode="normal" in="SourceGraphic" in2="effect1_dropShadow_4_11" result="shape"/>
</filter>
<linearGradient id="paint0_linear_4_11" x1="969.5" y1="-65" x2="969.5" y2="911.705" gradientUnits="userSpaceOnUse">
<stop stop-color="#0E2BA3"/>
<stop offset="1" stop-color="#293B85" stop-opacity="0"/>
</linearGradient>
<linearGradient id="paint1_linear_4_11" x1="969.5" y1="-65" x2="969.5" y2="911.705" gradientUnits="userSpaceOnUse">
<stop stop-color="#293B85"/>
<stop offset="1" stop-color="#293B85" stop-opacity="0"/>
</linearGradient>
<clipPath id="clip0_4_11">
<rect width="1440" height="1024" fill="white"/>
</clipPath>
</defs>
</svg>
